<svg xmlns="http://www.w3.org/2000/svg" width="33.937" height="33.91"><path data-name="Write copy" d="M25.795 5.09l3.03 3.03-12.608 13.06h-3.5v-3.49l13.076-12.6M25.82 0a2.121 2.121 0 00-1.5.62L8.481 15.89v9.53h9.539L33.3 9.59a2.114 2.114 0 000-2.99L27.319.62a2.121 2.121 0 00-1.5-.62zm3.856 28.6a1.055 1.055 0 01-1.06 1.05H5.3a1.055 1.055 0 01-1.06-1.05V5.3A1.057 1.057 0 015.3 4.24h5.3a2.12 2.12 0 002.12-2.12A2.12 2.12 0 0010.6 0H2.121a2.12 2.12 0 00-2.12 2.12v29.65a2.12 2.12 0 002.12 2.12h29.678a2.12 2.12 0 002.12-2.12V23.3a2.12 2.12 0 00-2.12-2.12 2.12 2.12 0 00-2.12 2.12v5.3z" fill="#fff" fill-rule="evenodd"/></svg>